# xmcd
#
# Track frame offsets:
#	150
#	14955
#	34737
#	51696
#	68916
#	84340
#	99482
#	124395
#	141884
#	158515
#	180933
#	194355
#
# Disc length: 2840 seconds
#
# Revision: 1
# Processed by: cddbd v1.5.2PL0 Copyright (c) Steve Scherf et al.
# Submitted via: audiograbber 1.83.01
#
DISCID=a70b160c
DTITLE=Lisa Brokop - Beautiful Tragedy
DYEAR=2008
DGENRE=Country
TTITLE0=Break It
TTITLE1=Beautiful Tragedy
TTITLE2=November Trees
TTITLE3=Clouds
TTITLE4=Band In The Window
TTITLE5=30 Shades Of Blue
TTITLE6=I Can't
TTITLE7=So Far
TTITLE8=On The Radio
TTITLE9=Rapunzel
TTITLE10=Shackin' Up
TTITLE11=Just To Be Here
EXTD=
EXTT0=
EXTT1=
EXTT2=
EXTT3=
EXTT4=
EXTT5=
EXTT6=
EXTT7=
EXTT8=
EXTT9=
EXTT10=
EXTT11=
PLAYORDER=
